<svg width="48" height="48" viewBox="0 0 48 48" fill="none" xmlns="http://www.w3.org/2000/svg">
<path d="M17.076 11.0902C17.076 14.0896 14.6687 16.4969 11.6694 16.4969C8.67004 16.4969 6.2627 14.0501 6.2627 11.0902C6.2627 8.09094 8.67004 5.68359 11.6694 5.68359C14.6292 5.68359 17.076 8.09094 17.076 11.0902Z" fill="#006E8F"/>
<path d="M42.2149 36.6635C42.2149 39.6628 39.8076 42.0701 36.8083 42.0701C33.809 42.0701 31.4016 39.6628 31.4016 36.6635C31.4016 33.6642 33.809 31.2568 36.8083 31.2568C39.7681 31.2568 42.2149 33.6642 42.2149 36.6635Z" fill="#006E8F"/>
<path d="M23.5087 6.43342L25.0084 11.0113C25.0873 11.327 25.2847 11.5244 25.5609 11.6428C25.8372 11.8006 26.1134 11.8006 26.4291 11.6822L26.6659 11.5244C27.4552 11.0113 28.3234 10.7351 29.3495 10.7351C31.0465 10.7351 32.3094 11.2876 33.2565 12.3926C34.1642 13.4976 34.6378 14.9972 34.6378 16.931V23.7979C34.6378 24.1925 34.7562 24.5082 35.0324 24.7845C35.3087 25.0607 35.6244 25.1791 36.019 25.1791H41.9387C42.3334 25.1791 42.6491 25.0607 42.9253 24.7845C43.2016 24.5082 43.32 24.1925 43.32 23.7979V17.1678C43.32 15.3524 43.1227 13.5765 42.6886 11.8795C42.2544 10.1826 41.5441 8.64344 40.5969 7.34111C39.6498 6.03878 38.3869 4.97323 36.8478 4.18394C35.3087 3.39465 33.4144 3 31.1649 3C29.7047 3 28.4813 3.15786 27.4157 3.51304C26.7843 3.71036 26.2713 3.94715 25.7582 4.14447L25.1663 4.42073L24.0612 5.17055C23.9034 5.28895 23.7455 5.40734 23.6666 5.5652C23.4298 5.88092 23.3903 6.15717 23.5087 6.43342Z" fill="#929497"/>
<path d="M24.8112 42.4649L23.3116 37.887C23.1932 37.5712 23.0353 37.3739 22.7591 37.2555C22.4828 37.1371 22.2066 37.0977 21.8909 37.2161L21.6541 37.3739C20.8648 37.887 19.9571 38.1632 18.9705 38.1632C17.2735 38.1632 16.0106 37.6107 15.0635 36.5057C14.1558 35.4007 13.6822 33.901 13.6822 31.9673V25.0609C13.6822 24.6663 13.5638 24.3506 13.2876 24.0743C13.0113 23.7981 12.6956 23.6797 12.301 23.6797H6.38126C5.98662 23.6797 5.6709 23.7981 5.39465 24.0743C5.11839 24.3506 5 24.6663 5 25.0609V31.7305C5 33.5458 5.19732 35.3218 5.63143 37.0187C6.06555 38.7157 6.77591 40.2154 7.72306 41.5572C8.67021 42.8595 9.93308 43.925 11.4722 44.7143C13.0113 45.5036 14.9056 45.8983 17.1551 45.8983C18.5758 45.8983 19.8387 45.7404 20.9042 45.3852C21.5357 45.1879 22.0487 44.9511 22.5618 44.7538L23.1537 44.4775L24.2587 43.7277C24.4166 43.6093 24.535 43.4909 24.6534 43.3331C24.8902 43.0568 24.8902 42.7411 24.8112 42.4649Z" fill="#929497"/>
</svg>
